HIERARCHY
ROOT Hips
{
    OFFSET   0.000000   0.000000   0.000000
    CHANNELS 6 Xposition Yposition Zposition Zrotation Xrotation Yrotation
    JOINT Chest
    {
        OFFSET   0.000000   8.007230   0.000000
        CHANNELS 3 Zrotation Xrotation Yrotation
        JOINT Chest2
        {
            OFFSET   0.000000  22.077100   0.000000
            CHANNELS 3 Zrotation Xrotation Yrotation
            JOINT Neck
            {
                OFFSET   0.000000  23.254700   0.000000
                CHANNELS 3 Zrotation Xrotation Yrotation
                JOINT Head
                {
                    OFFSET   0.000010  14.370000   1.956610
                    CHANNELS 3 Zrotation Xrotation Yrotation
                    End Site
                    {
                        OFFSET   0.000000  19.566000   0.000000
                    }
                }
            }
            JOINT LeftCollar
            {
                OFFSET   3.911900  19.017000  -0.467063
                CHANNELS 3 Zrotation Xrotation Yrotation
                JOINT LeftShoulder
                {
                    OFFSET  10.383700   0.000000   0.000000
                    CHANNELS 3 Zrotation Xrotation Yrotation
                    JOINT LeftElbow
                    {
                        OFFSET  26.662100   0.001671   0.000522
                        CHANNELS 3 Zrotation Xrotation Yrotation
                        JOINT LeftWrist
                        {
                            OFFSET  28.869000   0.000037  -0.000114
                            CHANNELS 3 Zrotation Xrotation Yrotation
                            JOINT LeftFinger0
                            {
                                OFFSET   2.044650  -2.323450   3.252850
                                CHANNELS 3 Zrotation Xrotation Yrotation
                                JOINT LeftFinger01
                                {
                                    OFFSET   3.088140   0.000000   0.000000
                                    CHANNELS 3 Zrotation Xrotation Yrotation
                                    JOINT LeftFinger02
                                    {
                                        OFFSET   2.639460   0.000000   0.000000
                                        CHANNELS 3 Zrotation Xrotation Yrotation
                                        End Site
                                        {
                                            OFFSET   2.582190   0.000000   0.000000
                                        }
                                    }
                                }
                            }
                            JOINT LeftFinger1
                            {
                                OFFSET   8.364480   0.000000   3.252850
                                CHANNELS 3 Zrotation Xrotation Yrotation
                                JOINT LeftFinger11
                                {
                                    OFFSET   4.646930   0.000000   0.000000
                                    CHANNELS 3 Zrotation Xrotation Yrotation
                                    JOINT LeftFinger12
                                    {
                                        OFFSET   2.323470   0.000000   0.000000
                                        CHANNELS 3 Zrotation Xrotation Yrotation
                                        End Site
                                        {
                                            OFFSET   2.273050   0.000000   0.000000
                                        }
                                    }
                                }
                            }
                            JOINT LeftFinger2
                            {
                                OFFSET   8.364490   0.000016   1.078090
                                CHANNELS 3 Zrotation Xrotation Yrotation
                                JOINT LeftFinger21
                                {
                                    OFFSET   5.111620   0.000000   0.000000
                                    CHANNELS 3 Zrotation Xrotation Yrotation
                                    JOINT LeftFinger22
                                    {
                                        OFFSET   2.788150   0.000013   0.000000
                                        CHANNELS 3 Zrotation Xrotation Yrotation
                                        End Site
                                        {
                                            OFFSET   2.727660   0.000000   0.000000
                                        }
                                    }
                                }
                            }
                            JOINT LeftFinger3
                            {
                                OFFSET   7.899780   0.000016  -1.078090
                                CHANNELS 3 Zrotation Xrotation Yrotation
                                JOINT LeftFinger31
                                {
                                    OFFSET   4.646930   0.000000   0.000000
                                    CHANNELS 3 Zrotation Xrotation Yrotation
                                    JOINT LeftFinger32
                                    {
                                        OFFSET   2.323470   0.000000   0.000000
                                        CHANNELS 3 Zrotation Xrotation Yrotation
                                        End Site
                                        {
                                            OFFSET   2.273050   0.000000   0.000000
                                        }
                                    }
                                }
                            }
                            JOINT LeftFinger4
                            {
                                OFFSET   7.435080   0.000000  -3.252850
                                CHANNELS 3 Zrotation Xrotation Yrotation
                                JOINT LeftFinger41
                                {
                                    OFFSET   3.717550   0.000000   0.000000
                                    CHANNELS 3 Zrotation Xrotation Yrotation
                                    JOINT LeftFinger42
                                    {
                                        OFFSET   1.858760   0.000000   0.000000
                                        CHANNELS 3 Zrotation Xrotation Yrotation
                                        End Site
                                        {
                                            OFFSET   1.818440   0.000000   0.000000
                                        }
                                    }
                                }
                            }
                        }
                    }
                }
            }
            JOINT RightCollar
            {
                OFFSET  -3.911900  19.017000  -0.467064
                CHANNELS 3 Zrotation Xrotation Yrotation
                JOINT RightShoulder
                {
                    OFFSET -10.383700   0.000000   0.000000
                    CHANNELS 3 Zrotation Xrotation Yrotation
                    JOINT RightElbow
                    {
                        OFFSET -26.662100   0.001633   0.000260
                        CHANNELS 3 Zrotation Xrotation Yrotation
                        JOINT RightWrist
                        {
                            OFFSET -28.869000  -0.000045  -0.000080
                            CHANNELS 3 Zrotation Xrotation Yrotation
                            JOINT RightFinger0
                            {
                                OFFSET  -2.044660  -2.323490   3.252850
                                CHANNELS 3 Zrotation Xrotation Yrotation
                                JOINT RightFinger01
                                {
                                    OFFSET  -3.088140   0.000000   0.000000
                                    CHANNELS 3 Zrotation Xrotation Yrotation
                                    JOINT RightFinger02
                                    {
                                        OFFSET  -2.639450   0.000000   0.000000
                                        CHANNELS 3 Zrotation Xrotation Yrotation
                                        End Site
                                        {
                                            OFFSET  -2.582190   0.000000   0.000000
                                        }
                                    }
                                }
                            }
                            JOINT RightFinger1
                            {
                                OFFSET  -8.364480   0.000000   3.252850
                                CHANNELS 3 Zrotation Xrotation Yrotation
                                JOINT RightFinger11
                                {
                                    OFFSET  -4.646920   0.000000   0.000000
                                    CHANNELS 3 Zrotation Xrotation Yrotation
                                    JOINT RightFinger12
                                    {
                                        OFFSET  -2.323470   0.000000   0.000000
                                        CHANNELS 3 Zrotation Xrotation Yrotation
                                        End Site
                                        {
                                            OFFSET  -2.273050   0.000000   0.000000
                                        }
                                    }
                                }
                            }
                            JOINT RightFinger2
                            {
                                OFFSET  -8.364480   0.000000   1.078090
                                CHANNELS 3 Zrotation Xrotation Yrotation
                                JOINT RightFinger21
                                {
                                    OFFSET  -5.111610   0.000000   0.000000
                                    CHANNELS 3 Zrotation Xrotation Yrotation
                                    JOINT RightFinger22
                                    {
                                        OFFSET  -2.788160   0.000000   0.000000
                                        CHANNELS 3 Zrotation Xrotation Yrotation
                                        End Site
                                        {
                                            OFFSET  -2.727660   0.000000   0.000000
                                        }
                                    }
                                }
                            }
                            JOINT RightFinger3
                            {
                                OFFSET  -7.899780   0.000000  -1.078090
                                CHANNELS 3 Zrotation Xrotation Yrotation
                                JOINT RightFinger31
                                {
                                    OFFSET  -4.646930   0.000000   0.000000
                                    CHANNELS 3 Zrotation Xrotation Yrotation
                                    JOINT RightFinger32
                                    {
                                        OFFSET  -2.323470   0.000000   0.000000
                                        CHANNELS 3 Zrotation Xrotation Yrotation
                                        End Site
                                        {
                                            OFFSET  -2.273050   0.000000   0.000000
                                        }
                                    }
                                }
                            }
                            JOINT RightFinger4
                            {
                                OFFSET  -7.435090   0.000000  -3.252850
                                CHANNELS 3 Zrotation Xrotation Yrotation
                                JOINT RightFinger41
                                {
                                    OFFSET  -3.717550   0.000000   0.000000
                                    CHANNELS 3 Zrotation Xrotation Yrotation
                                    JOINT RightFinger42
                                    {
                                        OFFSET  -1.858760   0.000000   0.000000
                                        CHANNELS 3 Zrotation Xrotation Yrotation
                                        End Site
                                        {
                                            OFFSET  -1.818440   0.000000   0.000000
                                        }
                                    }
                                }
                            }
                        }
                    }
                }
            }
        }
    }
    JOINT LeftHip
    {
        OFFSET   9.782990   0.000000   0.000000
        CHANNELS 3 Zrotation Xrotation Yrotation
        JOINT LeftKnee
        {
            OFFSET  -0.000063 -41.789100   0.001657
            CHANNELS 3 Zrotation Xrotation Yrotation
            JOINT LeftAnkle
            {
                OFFSET   0.000078 -41.133200  -0.000113
                CHANNELS 3 Zrotation Xrotation Yrotation
                JOINT LeftToe
                {
                    OFFSET   0.000000  -6.358970  14.674500
                    CHANNELS 3 Zrotation Xrotation Yrotation
                    End Site
                    {
                        OFFSET   0.000000   0.000000   3.913200
                    }
                }
            }
        }
    }
    JOINT RightHip
    {
        OFFSET  -9.782990   0.000000   0.000000
        CHANNELS 3 Zrotation Xrotation Yrotation
        JOINT RightKnee
        {
            OFFSET   0.000053 -41.789200   0.000277
            CHANNELS 3 Zrotation Xrotation Yrotation
            JOINT RightAnkle
            {
                OFFSET   0.000030 -41.133200  -0.000150
                CHANNELS 3 Zrotation Xrotation Yrotation
                JOINT RightToe
                {
                    OFFSET   0.000000  -6.358960  14.674500
                    CHANNELS 3 Zrotation Xrotation Yrotation
                    End Site
                    {
                        OFFSET   0.000000   0.000000   3.913200
                    }
                }
            }
        }
    }
}
MOTION
Frames: 4
Frame Time:   0.016667
 -2.640400  89.480500   2.227400  -6.615950 -13.554100 -10.878200   0.765093  10.524000   1.604190   1.242910  21.065000   3.145640   1.643570  -0.610827   0.017046   2.717980  -1.235660 -10.934600  -4.927290  -5.248720  -2.578660 -69.692700  20.816300  -7.611530  -1.462140  -7.092290 -18.312500  11.065200  -4.880890   0.684154  36.679000  25.919200 -57.204800 -30.481000   0.000000   0.000058 -10.240500   0.002696   0.000026 -26.027600   4.676050  -9.461210 -21.611100   0.003891   0.001566 -15.127700  -0.003064   0.005964 -28.337900  -1.098000   2.036730 -34.663800   0.001667   0.001966 -23.086100  -0.005588   0.001046 -27.798800  -1.078690   2.047050 -30.846300  -0.006185   0.001511 -20.543600  -0.004579   0.001144 -27.939700  -1.082880   2.044810 -41.928500  -0.003613   0.001740 -27.924300  -0.002545   0.000041  12.281900  -4.147200  10.324900  58.886400 -28.561700  52.072300 -43.025000 -35.305500  51.341700  23.340000 -43.556400  18.167700 -19.085400  47.041400  56.824600  79.883300  -0.003382   0.017335  46.542200   0.027168   0.031999   1.739400   0.333693   7.499860   1.466650   0.060479   0.025905   1.056120   0.042880   0.017435  86.882800   0.072458  -0.138553  86.645400  -0.471899  -0.201492  65.025800  -0.272232   0.266719  75.544200  -4.766670  -1.533820  75.391000  -0.234270  -0.195808  56.543700  -0.215664   0.077480  81.493800  -9.821640  -1.640440 110.000000  -0.002279  -0.005645  80.000000  -0.006645   0.004182   5.349630  18.707700   8.158240   1.402100   0.078381  11.731600  -4.717410  -4.160300  -0.963230  -0.000000   0.000000   0.000000   5.597300  14.402200   0.141495  -1.092690   3.942530  -3.956160  -0.468531  -4.552210   3.468040  -0.000000   0.000000  -0.000000
 -2.601240  89.454300   2.267290  -6.644670 -13.723000 -10.540100   0.787372  10.580700   1.798930   1.262810  21.180700   3.540130   1.622110  -0.736663   0.020641   2.666210  -1.490160 -10.814000  -4.858260  -5.248230  -3.016390 -69.856700  20.479700  -7.437340  -1.710530  -7.074130 -18.237100  10.755700  -4.500560   0.602789  36.766500  26.173000 -57.635500 -30.429500   0.000000   0.000000 -10.214700   0.002664   0.000061 -25.857900   4.708570  -9.614050 -21.479900   0.004088   0.001566 -15.035900  -0.003070   0.006258 -28.291100  -1.011980   1.879320 -34.277000   0.001670   0.001969 -22.828500  -0.005588   0.001044 -27.750500  -0.994205   1.888810 -30.590500  -0.006187   0.001510 -20.373300  -0.004580   0.001142 -27.820500  -0.996592   1.887640 -41.756500  -0.003613   0.001738 -27.809800  -0.002541   0.000000  12.083400  -4.593620   9.725950  57.842600 -28.519200  52.155100 -40.704800 -29.035600  46.756400  18.485400 -41.733900  13.378600 -19.174200  43.459600  58.995200  77.933900  -0.006511   0.030980  45.243900   0.031643   0.037943   2.776580   0.519440  10.304600   2.349130   0.010270   0.005036   1.644400   0.007347   0.003194  89.560400  -0.017903   0.033161  93.794500  -0.307020  -0.077977  70.391400  -0.129156   0.201460  79.993400  -4.778430  -1.090790  79.784000  -0.207062  -0.153106  59.838200  -0.175550   0.078884  84.836200  -9.877650  -1.041500 110.000000  -0.002335  -0.005673  80.000000  -0.006742   0.004189   5.408570  18.820700   8.111830   1.432490   0.105920  11.600900  -4.735820  -4.178740  -1.139150   0.000000   0.000000  -0.000000   5.644550  14.606100   0.044669  -1.049300   3.933030  -4.069460  -0.461348  -4.575500   3.343610   0.000000   0.000000   0.000000
 -2.569430  89.444700   2.328300  -6.634740 -13.918300 -10.177700   0.742598  10.684900   2.051760   1.141060  21.390200   4.065660   1.631610  -0.959953   0.027989   2.695570  -1.943240 -10.810500  -4.773870  -5.282630  -3.244660 -69.595300  20.564500  -7.456430  -2.015610  -7.062840 -18.273600  10.340400  -4.052590   0.523845  36.819100  26.169600 -57.231000 -30.451200   0.000000   0.000000 -10.225500   0.002615   0.000071 -25.646700   4.757980  -9.827700 -21.318600   0.004285   0.001566 -14.922900  -0.003069   0.006557 -28.167300  -1.074740   2.005320 -33.355000   0.001671   0.001968 -22.214500  -0.005588   0.001045 -27.595800  -1.054510   2.016110 -29.817900  -0.006190   0.001512 -19.858800  -0.004579   0.001140 -27.353900  -1.043590   2.022100 -41.063600  -0.003612   0.001735 -27.348400  -0.002546  -0.000050  11.830600  -4.885450   9.242090  53.980800 -27.440400  50.127800 -39.324000 -26.338100  41.044200  15.424800 -42.199600  11.148500 -20.553200  42.552500  61.118300  75.427200  -0.010028   0.023750  43.574400   0.015643   0.027074   3.237910   0.737324  13.016500   2.747770   0.000589   0.001060   1.923440   0.000390   0.000666  89.280200  -0.009102   0.016639  99.703700  -0.143888  -0.022760  74.729300  -0.041438   0.099164  84.173900  -4.888210  -0.621192  84.574600  -0.119270  -0.072901  63.430900  -0.088735   0.054872  87.800700  -9.959070  -0.435283 110.000000  -0.002389  -0.005701  80.000000  -0.006836   0.004207   5.417370  18.994400   7.995510   1.460930   0.034279  11.522500  -4.745450  -4.123960  -1.303830   0.000000   0.000000   0.000000   5.642570  14.827100  -0.105047  -0.992357   3.929910  -4.215820  -0.442872  -4.609480   3.280820  -0.000000   0.000000   0.000000
 -2.531520  89.439000   2.392510  -6.573230 -14.099500  -9.737370   0.695551  10.801000   2.284790   0.969432  21.620900   4.558540   1.641230  -1.242440   0.036053   2.702160  -2.515720 -10.808800  -4.719730  -5.355180  -3.339980 -69.177100  20.732100  -7.524130  -2.203720  -7.029890 -18.309200   9.955870  -3.523640   0.427704  36.872500  26.162600 -56.825700 -30.472800   0.000000  -0.000000 -10.236400   0.002563   0.000072 -25.419300   4.790950  -9.968070 -21.140100   0.004483   0.001565 -14.798000  -0.003066   0.006860 -28.041400  -1.137490   2.131330 -32.432700   0.001672   0.001967 -21.600200  -0.005588   0.001046 -27.434600  -1.114810   2.143420 -29.005300  -0.006192   0.001514 -19.317600  -0.004579   0.001140 -26.807100  -1.090570   2.156560 -40.239100  -0.003609   0.001732 -26.799300  -0.002552  -0.000100  11.577000  -5.029490   8.983570  49.102900 -25.750900  47.127400 -38.384800 -26.017900  34.738900  13.273500 -42.509400  10.243400 -21.730700  42.182900  62.535300  72.911800  -0.011773   0.012632  41.899200  -0.000386   0.011722   3.417680   0.931044  15.475800   2.908400  -0.000932   0.000492   2.035870  -0.000658   0.000213  89.000000   0.000000   0.000000 104.701000  -0.029467  -0.002684  78.241000   0.000121   0.016514  87.669400  -4.992970  -0.224241  89.073500  -0.033612  -0.012577  66.805100  -0.017893   0.021369  89.504400 -10.012700  -0.069989 110.000000  -0.002446  -0.005729  79.999900  -0.006924   0.004219   5.398680  19.109200   7.872340   1.496360  -0.037410  11.374000  -4.752760  -4.039580  -1.450730   0.000000   0.000000  -0.000000   5.564300  15.029000  -0.258891  -0.923325   3.926470  -4.420170  -0.422089  -4.656190   3.213310  -0.000000   0.000000  -0.000000
